<svg xmlns:xlink="http://www.w3.org/1999/xlink" xmlns:ed="http://www.edrawsoft.cn/xml/2017/SVGExtensions/" ed:name="Page-1" viewBox="0 0 1182 819" xmlns="http://www.w3.org/2000/svg" width="1182" height="818" ed:hSpacing="30" ed:vSpacing="30" id="page100" xmlns:ev="http://www.w3.org/2001/xml-events"><style type="text/css"><![CDATA[
g[ed\:togtopicid],g[ed\:hyperlink],g[ed\:comment],g[ed\:note] {cursor:pointer;}
g[id] {-moz-user-select: none;-ms-user-select: none;user-select: none;}
svg text::selection,svg tspan::selection{background-color: #4285f4;color: #ffffff;fill: #ffffff;}
.st2 {fill:#d979b0;font-family:宋体;font-size:10pt}
.st1 {fill:#ffffff;font-family:宋体;font-size:12pt}
.st3 {fill:#ffffff;font-family:宋体;font-size:14pt}
]]></style><defs><linearGradient x1="0%" y1="0%" y2="100%" x2="0%" id="lg1"><stop offset="0" stop-color="#ffffff"/><stop offset="0.25" stop-color="#f0f5f0"/><stop offset="0.75" stop-color="#e1ebe1"/><stop offset="1" stop-color="#c8d7c8"/></linearGradient></defs><rect fill="#ffffff" width="1182" height="819" y="0" x="0"/><g ed:width="92.2209" ed:parentid="101" transform="translate(151,387.05)" ed:height="44.7994" ed:layout="leftmap" id="102"><path fill="#5fb5f0" d="M0,22.4C0,10,20.6,0,46.1,0C71.6,0,92.2,10,92.2,22.4C92.2,34.8,71.6,44.8,46.1,44.8C20.6,44.8,0,34.8,0,22.4z" stroke="#5fb5f0" stroke-linejoin="round"/><path fill="#5fb5f0" stroke-linecap="round" d="M-14.5,2.7C-13.6,2,-13.1,1.1,-13.1,0C-13.1,-1.9,-14.8,-3.6,-17.3,-3.5L-87.5,-0.1C-89.2,-0.1,-89.2,0.1,-87.5,0.1L-20.3,3.4C-18.6,3.4,-16.1,3.9,-14.5,2.7z" transform="translate(182.71,22.4)" stroke="#5fb5f0" stroke-linejoin="round" id="103"/><text class="st1"><tspan textLength="64" lengthAdjust="spacing" y="28.9" x="15" style="white-space:pre">总体预案</tspan></text></g><g ed:width="92.2209" ed:parentid="101" transform="translate(605.19,387.05)" ed:height="44.7994" ed:layout="rightmap" id="104"><path fill="#f68ac8" d="M0,22.4C0,10,20.6,0,46.1,0C71.6,0,92.2,10,92.2,22.4C92.2,34.8,71.6,44.8,46.1,44.8C20.6,44.8,0,34.8,0,22.4z" stroke="#f68ac8" stroke-linejoin="round"/><path fill="#f68ac8" stroke-linecap="round" d="M16.2,-2.7C15.3,-2,14.8,-1.1,14.8,0C14.8,1.9,16.5,3.6,19,3.5L87.5,0.1C89.2,0.1,89.2,-0.1,87.5,-0.1L22,-3.4C20.4,-3.4,17.8,-3.9,16.2,-2.7z" transform="translate(-90.49,22.4)" stroke="#f68ac8" stroke-linejoin="round" id="105"/><text class="st1"><tspan textLength="64" lengthAdjust="spacing" y="28.9" x="15" style="white-space:pre">专项预案</tspan></text></g><g ed:width="73" ed:parentid="104" transform="translate(726.41,209.4)" ed:height="20.5" ed:layout="rightmap" id="106"><path stroke-linecap="round" fill="none" d="M-14.5,89.8L-2.5,89.8C-2.5,-18,4.3,-89.8,14.5,-89.8" transform="translate(-14.5,110.27)" stroke="#f68ac8" stroke-linejoin="round" id="107"/><path fill="none" d="M0,20.5L73,20.5" stroke="#f68ac8" stroke-linejoin="round"/><text class="st2"><tspan textLength="65" lengthAdjust="spacing" y="15.8" x="4" style="white-space:pre">自然灾害类</tspan></text></g><g ed:width="73" ed:parentid="104" transform="translate(726.41,399.2)" ed:height="20.5" ed:layout="rightmap" id="108"><path stroke-linecap="round" fill="none" d="M-14.5,-5.1L-2.5,-5.1C-2.5,1,4.3,5.1,14.5,5.1" transform="translate(-14.5,15.38)" stroke="#f68ac8" stroke-linejoin="round" id="109"/><path fill="none" d="M0,20.5L73,20.5" stroke="#f68ac8" stroke-linejoin="round"/><text class="st2"><tspan textLength="65" lengthAdjust="spacing" y="15.8" x="4" style="white-space:pre">事故灾难类</tspan></text></g><g ed:width="73" ed:parentid="104" transform="translate(726.41,530.6)" ed:height="20.5" ed:layout="rightmap" id="110"><path stroke-linecap="round" fill="none" d="M-14.5,-70.8L-2.5,-70.8C-2.5,14.2,4.3,70.8,14.5,70.8" transform="translate(-14.5,-50.33)" stroke="#f68ac8" stroke-linejoin="round" id="111"/><path fill="none" d="M0,20.5L73,20.5" stroke="#f68ac8" stroke-linejoin="round"/><text class="st2"><tspan textLength="65" lengthAdjust="spacing" y="15.8" x="4" style="white-space:pre">公共卫生类</tspan></text></g><g ed:width="73" ed:parentid="104" transform="translate(726.41,603.6)" ed:height="20.5" ed:layout="rightmap" id="112"><path stroke-linecap="round" fill="none" d="M-14.5,-107.3L-2.5,-107.3C-2.5,21.5,4.3,107.3,14.5,107.3" transform="translate(-14.5,-86.83)" stroke="#f68ac8" stroke-linejoin="round" id="113"/><path fill="none" d="M0,20.5L73,20.5" stroke="#f68ac8" stroke-linejoin="round"/><text class="st2"><tspan textLength="65" lengthAdjust="spacing" y="15.8" x="4" style="white-space:pre">社会安全类</tspan></text></g><g ed:width="138" ed:parentid="106" transform="translate(828.41,151)" ed:height="20.5" ed:layout="rightmap" id="114"><path stroke-linecap="round" fill="none" d="M-14.5,29.2L-2.5,29.2C-2.5,-5.8,4.3,-29.2,14.5,-29.2" transform="translate(-14.5,49.7)" stroke="#f68ac8" stroke-linejoin="round" id="115"/><path fill="none" d="M0,20.5L138,20.5" stroke="#f68ac8" stroke-linejoin="round"/><text class="st2"><tspan textLength="130" lengthAdjust="spacing" y="15.8" x="4" style="white-space:pre">台风灾害处置应急预案</tspan></text></g><g ed:width="86" ed:parentid="106" transform="translate(828.41,180.2)" ed:height="20.5" ed:layout="rightmap" id="116"><path stroke-linecap="round" fill="none" d="M-14.5,14.6L-2.5,14.6C-2.5,-2.9,4.3,-14.6,14.5,-14.6" transform="translate(-14.5,35.1)" stroke="#f68ac8" stroke-linejoin="round" id="117"/><path fill="none" d="M0,20.5L86,20.5" stroke="#f68ac8" stroke-linejoin="round"/><text class="st2"><tspan textLength="78" lengthAdjust="spacing" y="15.8" x="4" style="white-space:pre">防汛应急预案</tspan></text></g><g ed:width="138" ed:parentid="106" transform="translate(828.41,209.4)" ed:height="20.5" ed:layout="rightmap" id="118"><path stroke-linecap="round" fill="none" d="M-14.5,0L-2.5,0C-2.5,0,4.3,0,14.5,0" transform="translate(-14.5,20.5)" stroke="#f68ac8" stroke-linejoin="round" id="119"/><path fill="none" d="M0,20.5L138,20.5" stroke="#f68ac8" stroke-linejoin="round"/><text class="st2"><tspan textLength="130" lengthAdjust="spacing" y="15.8" x="4" style="white-space:pre">雨雪冰冻处置应急预案</tspan></text></g><g ed:width="138" ed:parentid="106" transform="translate(828.41,238.6)" ed:height="20.5" ed:layout="rightmap" id="120"><path stroke-linecap="round" fill="none" d="M-14.5,-14.6L-2.5,-14.6C-2.5,2.9,4.3,14.6,14.5,14.6" transform="translate(-14.5,5.9)" stroke="#f68ac8" stroke-linejoin="round" id="121"/><path fill="none" d="M0,20.5L138,20.5" stroke="#f68ac8" stroke-linejoin="round"/><text class="st2"><tspan textLength="130" lengthAdjust="spacing" y="15.8" x="4" style="white-space:pre">地震灾害处置应急预案</tspan></text></g><g ed:width="138" ed:parentid="106" transform="translate(828.41,267.8)" ed:height="20.5" ed:layout="rightmap" id="122"><path stroke-linecap="round" fill="none" d="M-14.5,-29.2L-2.5,-29.2C-2.5,5.8,4.3,29.2,14.5,29.2" transform="translate(-14.5,-8.7)" stroke="#f68ac8" stroke-linejoin="round" id="123"/><path fill="none" d="M0,20.5L138,20.5" stroke="#f68ac8" stroke-linejoin="round"/><text class="st2"><tspan textLength="130" lengthAdjust="spacing" y="15.8" x="4" style="white-space:pre">地质灾害处置应急预案</tspan></text></g><g ed:width="151" ed:parentid="108" transform="translate(828.41,297)" ed:height="20.5" ed:layout="rightmap" id="124"><path stroke-linecap="round" fill="none" d="M-14.5,51.1L-2.5,51.1C-2.5,-10.2,4.3,-51.1,14.5,-51.1" transform="translate(-14.5,71.6)" stroke="#f68ac8" stroke-linejoin="round" id="125"/><path fill="none" d="M0,20.5L151,20.5" stroke="#f68ac8" stroke-linejoin="round"/><text class="st2"><tspan textLength="143" lengthAdjust="spacing" y="15.8" x="4" style="white-space:pre">大面积停电事件应急预案</tspan></text></g><g ed:width="164" ed:parentid="108" transform="translate(828.41,326.2)" ed:height="20.5" ed:layout="rightmap" id="126"><path stroke-linecap="round" fill="none" d="M-14.5,36.5L-2.5,36.5C-2.5,-7.3,4.3,-36.5,14.5,-36.5" transform="translate(-14.5,57)" stroke="#f68ac8" stroke-linejoin="round" id="127"/><path fill="none" d="M0,20.5L164,20.5" stroke="#f68ac8" stroke-linejoin="round"/><text class="st2"><tspan textLength="156" lengthAdjust="spacing" y="15.8" x="4" style="white-space:pre">人员伤亡事件处置应急预案</tspan></text></g><g ed:width="138" ed:parentid="108" transform="translate(828.41,355.4)" ed:height="20.5" ed:layout="rightmap" id="128"><path stroke-linecap="round" fill="none" d="M-14.5,21.9L-2.5,21.9C-2.5,-4.4,4.3,-21.9,14.5,-21.9" transform="translate(-14.5,42.4)" stroke="#f68ac8" stroke-linejoin="round" id="129"/><path fill="none" d="M0,20.5L138,20.5" stroke="#f68ac8" stroke-linejoin="round"/><text class="st2"><tspan textLength="130" lengthAdjust="spacing" y="15.8" x="4" style="white-space:pre">交通事故处置应急预案</tspan></text></g><g ed:width="138" ed:parentid="108" transform="translate(828.41,384.6)" ed:height="20.5" ed:layout="rightmap" id="130"><path stroke-linecap="round" fill="none" d="M-14.5,7.3L-2.5,7.3C-2.5,-1.5,4.3,-7.3,14.5,-7.3" transform="translate(-14.5,27.8)" stroke="#f68ac8" stroke-linejoin="round" id="131"/><path fill="none" d="M0,20.5L138,20.5" stroke="#f68ac8" stroke-linejoin="round"/><text class="st2"><tspan textLength="130" lengthAdjust="spacing" y="15.8" x="4" style="white-space:pre">设备事故处置应急预案</tspan></text></g><g ed:width="190" ed:parentid="108" transform="translate(828.41,413.8)" ed:height="20.5" ed:layout="rightmap" id="132"><path stroke-linecap="round" fill="none" d="M-14.5,-7.3L-2.5,-7.3C-2.5,1.5,4.3,7.3,14.5,7.3" transform="translate(-14.5,13.2)" stroke="#f68ac8" stroke-linejoin="round" id="133"/><path fill="none" d="M0,20.5L190,20.5" stroke="#f68ac8" stroke-linejoin="round"/><text class="st2"><tspan textLength="182" lengthAdjust="spacing" y="15.8" x="4" style="white-space:pre">生产经营区域火灾处置应急预案</tspan></text></g><g ed:width="164" ed:parentid="108" transform="translate(828.41,443)" ed:height="20.5" ed:layout="rightmap" id="134"><path stroke-linecap="round" fill="none" d="M-14.5,-21.9L-2.5,-21.9C-2.5,4.4,4.3,21.9,14.5,21.9" transform="translate(-14.5,-1.4)" stroke="#f68ac8" stroke-linejoin="round" id="135"/><path fill="none" d="M0,20.5L164,20.5" stroke="#f68ac8" stroke-linejoin="round"/><text class="st2"><tspan textLength="156" lengthAdjust="spacing" y="15.8" x="4" style="white-space:pre">通信系统事故处置应急预案</tspan></text></g><g ed:width="203" ed:parentid="108" transform="translate(828.41,472.2)" ed:height="20.5" ed:layout="rightmap" id="136"><path stroke-linecap="round" fill="none" d="M-14.5,-36.5L-2.5,-36.5C-2.5,7.3,4.3,36.5,14.5,36.5" transform="translate(-14.5,-16)" stroke="#f68ac8" stroke-linejoin="round" id="137"/><path fill="none" d="M0,20.5L203,20.5" stroke="#f68ac8" stroke-linejoin="round"/><text class="st2"><tspan textLength="195" lengthAdjust="spacing" y="15.8" x="4" style="white-space:pre">网络与信息安全突发事件应急预案</tspan></text></g><g ed:width="164" ed:parentid="108" transform="translate(828.41,501.4)" ed:height="20.5" ed:layout="rightmap" id="138"><path stroke-linecap="round" fill="none" d="M-14.5,-51.1L-2.5,-51.1C-2.5,10.2,4.3,51.1,14.5,51.1" transform="translate(-14.5,-30.6)" stroke="#f68ac8" stroke-linejoin="round" id="139"/><path fill="none" d="M0,20.5L164,20.5" stroke="#f68ac8" stroke-linejoin="round"/><text class="st2"><tspan textLength="156" lengthAdjust="spacing" y="15.8" x="4" style="white-space:pre">环境污染事件处置应急预案</tspan></text></g><g ed:width="190" ed:parentid="110" transform="translate(828.41,530.6)" ed:height="20.5" ed:layout="rightmap" id="140"><path stroke-linecap="round" fill="none" d="M-14.5,0L-2.5,0C-2.5,0,4.3,0,14.5,0" transform="translate(-14.5,20.5)" stroke="#f68ac8" stroke-linejoin="round" id="141"/><path fill="none" d="M0,20.5L190,20.5" stroke="#f68ac8" stroke-linejoin="round"/><text class="st2"><tspan textLength="182" lengthAdjust="spacing" y="15.8" x="4" style="white-space:pre">突发公共卫生事件处置应急预案</tspan></text></g><g ed:width="164" ed:parentid="112" transform="translate(828.41,559.8)" ed:height="20.5" ed:layout="rightmap" id="142"><path stroke-linecap="round" fill="none" d="M-14.5,21.9L-2.5,21.9C-2.5,-4.4,4.3,-21.9,14.5,-21.9" transform="translate(-14.5,42.4)" stroke="#f68ac8" stroke-linejoin="round" id="143"/><path fill="none" d="M0,20.5L164,20.5" stroke="#f68ac8" stroke-linejoin="round"/><text class="st2"><tspan textLength="156" lengthAdjust="spacing" y="15.8" x="4" style="white-space:pre">电力服务事件处置应急预案</tspan></text></g><g ed:width="138" ed:parentid="112" transform="translate(828.41,589)" ed:height="20.5" ed:layout="rightmap" id="144"><path stroke-linecap="round" fill="none" d="M-14.5,7.3L-2.5,7.3C-2.5,-1.5,4.3,-7.3,14.5,-7.3" transform="translate(-14.5,27.8)" stroke="#f68ac8" stroke-linejoin="round" id="145"/><path fill="none" d="M0,20.5L138,20.5" stroke="#f68ac8" stroke-linejoin="round"/><text class="st2"><tspan textLength="130" lengthAdjust="spacing" y="15.8" x="4" style="white-space:pre">重要保电事件应急预案</tspan></text></g><g ed:width="177" ed:parentid="112" transform="translate(828.41,618.2)" ed:height="20.5" ed:layout="rightmap" id="146"><path stroke-linecap="round" fill="none" d="M-14.5,-7.3L-2.5,-7.3C-2.5,1.5,4.3,7.3,14.5,7.3" transform="translate(-14.5,13.2)" stroke="#f68ac8" stroke-linejoin="round" id="147"/><path fill="none" d="M0,20.5L177,20.5" stroke="#f68ac8" stroke-linejoin="round"/><text class="st2"><tspan textLength="169" lengthAdjust="spacing" y="15.8" x="4" style="white-space:pre">突发群体性事件处置应急预案</tspan></text></g><g ed:width="164" ed:parentid="112" transform="translate(828.41,647.4)" ed:height="20.5" ed:layout="rightmap" id="148"><path stroke-linecap="round" fill="none" d="M-14.5,-21.9L-2.5,-21.9C-2.5,4.4,4.3,21.9,14.5,21.9" transform="translate(-14.5,-1.4)" stroke="#f68ac8" stroke-linejoin="round" id="149"/><path fill="none" d="M0,20.5L164,20.5" stroke="#f68ac8" stroke-linejoin="round"/><text class="st2"><tspan textLength="156" lengthAdjust="spacing" y="15.8" x="4" style="white-space:pre">新闻突发事件处置应急预案</tspan></text></g><g ed:topictype="mainidea" ed:width="235.971" transform="translate(306.22,291.46)" ed:height="235.971" ed:layout="map" id="101"><path fill="#8bd4a7" d="M227.5,118C238.5,136.6,245.9,170.3,202.5,179.6C202.6,215.2,180.5,226.4,149.4,217.9C117.4,250.3,92.1,231.9,81.9,217.9C33.5,230.2,29.2,187.5,29.7,179.8C-8.8,164.1,-3.5,137.6,10.2,118C-11.7,79.6,8.6,61.6,32.4,55.9C28.7,16.6,58.8,9.9,85.3,17.7C89.7,11.9,119.6,-19.1,149.4,17.7C178.4,8.9,206.6,17,207.5,55.9C228.3,61.5,247.4,81.3,227.5,118z" stroke="#8bd4a7" stroke-linejoin="round" stroke-width="3"/><text class="st3"><tspan textLength="190" lengthAdjust="spacing" y="125.5" x="23" style="white-space:pre">供电公司应急预案名录</tspan></text></g><g transform="translate(543.192,403.45)" ed:togtopicid="101"><use xlink:href="#minus"/></g><g transform="translate(698.413,403.45)" ed:togtopicid="104"><use xlink:href="#minus"/></g><g transform="translate(800.413,213.65)" ed:togtopicid="106"><use xlink:href="#minus"/></g><g transform="translate(800.413,403.45)" ed:togtopicid="108"><use xlink:href="#minus"/></g><g transform="translate(800.413,534.85)" ed:togtopicid="110"><use xlink:href="#minus"/></g><g transform="translate(800.413,607.85)" ed:togtopicid="112"><use xlink:href="#minus"/></g><symbol id="plus"><path fill="url(#lg1)" d="M11,6C11,8.8,8.8,11,6,11C3.2,11,1,8.8,1,6C1,3.2,3.2,1,6,1C8.8,1,11,3.2,11,6z"/><path fill="none" d="M11,6C11,8.8,8.8,11,6,11C3.2,11,1,8.8,1,6C1,3.2,3.2,1,6,1C8.8,1,11,3.2,11,6zM3,6L9,6M6,3L6,9" stroke="#46a000"/></symbol><symbol id="minus"><path fill="url(#lg1)" d="M11,6C11,8.8,8.8,11,6,11C3.2,11,1,8.8,1,6C1,3.2,3.2,1,6,1C8.8,1,11,3.2,11,6z"/><path fill="none" d="M11,6C11,8.8,8.8,11,6,11C3.2,11,1,8.8,1,6C1,3.2,3.2,1,6,1C8.8,1,11,3.2,11,6zM3,6L9,6" stroke="#46a000"/></symbol></svg>