<svg xmlns:xlink="http://www.w3.org/1999/xlink" xmlns:ed="http://www.edrawsoft.cn/xml/2017/SVGExtensions/" ed:name="Page-1" viewBox="0 0 1013 1038" xmlns="http://www.w3.org/2000/svg" width="1012" height="1038" ed:hSpacing="30" ed:vSpacing="30" id="page100" xmlns:ev="http://www.w3.org/2001/xml-events"><style type="text/css"><![CDATA[
g[ed\:togtopicid],g[ed\:hyperlink],g[ed\:comment],g[ed\:note] {cursor:pointer;}
g[id] {-moz-user-select: none;-ms-user-select: none;user-select: none;}
svg text::selection,svg tspan::selection{background-color: #4285f4;color: #ffffff;fill: #ffffff;}
.st4 {fill:#002060;font-family:宋体;font-size:12pt}
.st3 {fill:#8e74c2;font-family:宋体;font-size:10pt}
.st2 {fill:#d979b0;font-family:宋体;font-size:10pt}
.st1 {fill:#ffffff;font-family:宋体;font-size:12pt}
.st5 {fill:#ffffff;font-family:宋体;font-size:14pt}
]]></style><defs><linearGradient x1="0%" y1="0%" y2="100%" x2="0%" id="lg1"><stop offset="0" stop-color="#ffffff"/><stop offset="0.25" stop-color="#f0f5f0"/><stop offset="0.75" stop-color="#e1ebe1"/><stop offset="1" stop-color="#c8d7c8"/></linearGradient></defs><rect fill="#ffffff" width="1013" height="1038" y="0" x="0"/><g ed:width="141.002" ed:parentid="101" transform="translate(373.74,602.17)" ed:height="66.751" id="102"><path fill="#f68ac8" d="M0,33.4C0,14.9,31.6,0,70.5,0C109.4,0,141,14.9,141,33.4C141,51.8,109.4,66.8,70.5,66.8C31.6,66.8,0,51.8,0,33.4z" stroke="#f68ac8" stroke-linejoin="round"/><path fill="#f68ac8" stroke-linecap="round" d="M-17.4,-20.7C-17.9,-23.2,-19.8,-24.5,-21.7,-24.1C-23.6,-23.7,-24.9,-21.8,-24.3,-19.3C-23.7,-17,-23.2,-14.7,-22.6,-12.4C-22,-10.1,-21.4,-7.8,-20.7,-5.6C-20,-3.3,-19.3,-1,-18.6,1.2C-17.8,3.5,-17.1,5.7,-16.2,7.9C-15.4,10.1,-14.6,12.3,-13.6,14.5C-12.7,16.7,-11.8,18.9,-10.8,21C-9.8,23.2,-8.8,25.3,-7.7,27.4C-6.6,29.5,-5.5,31.6,-4.3,33.7C-3.1,35.7,-1.9,37.7,-0.6,39.7C0.7,41.7,2.1,43.7,3.5,45.6C4.9,47.5,6.3,49.4,7.8,51.2C9.4,53,10.9,54.8,12.6,56.5C14.2,58.2,15.9,59.9,17.6,61.5C19.4,63.1,21.2,64.6,23.1,66C24.9,67.5,26.9,68.9,28.9,70.1C30.9,71.4,32.9,72.6,35,73.7C37.1,74.8,39.2,75.8,41.4,76.7C43.6,77.6,45.8,78.4,48.1,79.1C50.3,79.7,52.6,80.3,54.9,80.7C57.1,81.2,59.3,81.5,61.8,81.7C64.4,82,67.3,82.1,68.9,82.1C69.3,82.1,69.7,82.1,69.9,82.1C70.6,82.1,70.6,82.1,69.9,82.1C69.7,82.1,69.3,82,68.9,82C67.3,81.9,64.4,81.7,61.9,81.3C59.4,81,57.3,80.6,55.1,80C52.9,79.5,50.6,78.8,48.4,78C46.2,77.3,44.1,76.4,42,75.4C39.9,74.4,37.8,73.4,35.8,72.2C33.8,71,31.9,69.8,30,68.4C28.2,67.1,26.3,65.7,24.6,64.2C22.8,62.7,21.1,61.1,19.5,59.5C17.9,57.9,16.3,56.2,14.8,54.5C13.3,52.7,11.9,50.9,10.5,49.1C9.1,47.3,7.8,45.4,6.5,43.5C5.2,41.5,4,39.6,2.9,37.6C1.7,35.6,0.6,33.6,-0.4,31.6C-1.5,29.5,-2.5,27.5,-3.5,25.4C-4.4,23.3,-5.3,21.2,-6.2,19C-7.1,16.9,-7.9,14.8,-8.7,12.6C-9.4,10.4,-10.2,8.3,-10.9,6.1C-11.6,3.9,-12.2,1.7,-12.8,-0.5C-13.4,-2.8,-14,-5,-14.6,-7.2C-15.1,-9.5,-15.6,-11.7,-16.1,-14C-16.6,-16.2,-17,-18.5,-17.4,-20.7z" transform="translate(-70.93,-48.7)" stroke="#f68ac8" stroke-linejoin="round" id="178"/><text class="st1"><tspan textLength="112" lengthAdjust="spacing" y="39.9" x="15" style="white-space:pre">安全应急办公室</tspan></text></g><g ed:width="141.002" ed:parentid="101" transform="translate(373.74,259.27)" ed:height="66.751" id="104"><path fill="#a284dc" d="M0,33.4C0,14.9,31.6,0,70.5,0C109.4,0,141,14.9,141,33.4C141,51.8,109.4,66.8,70.5,66.8C31.6,66.8,0,51.8,0,33.4z" stroke="#a284dc" stroke-linejoin="round"/><path fill="#a284dc" stroke-linecap="round" d="M-24.8,23.8C-25.3,26.3,-24,28.2,-22.1,28.6C-20.2,28.9,-18.3,27.6,-17.9,25.1C-17.5,22.8,-17.2,20.5,-16.8,18.2C-16.3,16,-15.9,13.7,-15.4,11.5C-15,9.2,-14.5,7,-13.9,4.7C-13.4,2.5,-12.8,0.2,-12.2,-2C-11.6,-4.2,-11,-6.4,-10.3,-8.6C-9.7,-10.9,-9,-13.1,-8.2,-15.2C-7.5,-17.4,-6.7,-19.6,-5.9,-21.7C-5.1,-23.9,-4.2,-26,-3.4,-28.2C-2.5,-30.3,-1.5,-32.4,-0.5,-34.5C0.5,-36.5,1.5,-38.6,2.6,-40.6C3.7,-42.7,4.8,-44.7,6,-46.7C7.1,-48.6,8.4,-50.6,9.7,-52.5C11,-54.4,12.3,-56.3,13.7,-58.1C15.1,-59.9,16.6,-61.7,18.1,-63.4C19.6,-65.1,21.2,-66.8,22.9,-68.4C24.5,-70,26.2,-71.6,28,-73C29.8,-74.5,31.6,-75.9,33.5,-77.2C35.4,-78.5,37.4,-79.7,39.4,-80.9C41.4,-82,43.5,-83,45.6,-83.9C47.7,-84.8,49.9,-85.6,52.1,-86.3C54.3,-87,56.5,-87.6,58.9,-88.1C61.2,-88.5,63.7,-88.9,65.8,-89.1C67,-89.2,68,-89.3,68.9,-89.3C70.3,-89.4,70.3,-89.4,68.9,-89.4C68,-89.4,66.9,-89.4,65.8,-89.3C63.7,-89.2,61.2,-88.9,58.8,-88.6C56.4,-88.2,54.1,-87.7,51.9,-87.1C49.6,-86.5,47.4,-85.8,45.2,-85C43,-84.1,40.8,-83.2,38.7,-82.1C36.6,-81.1,34.5,-79.9,32.5,-78.7C30.5,-77.4,28.6,-76.1,26.7,-74.7C24.8,-73.2,23,-71.7,21.2,-70.2C19.5,-68.6,17.8,-66.9,16.1,-65.2C14.5,-63.5,12.9,-61.8,11.4,-60C9.9,-58.1,8.4,-56.3,7,-54.4C5.6,-52.5,4.2,-50.6,2.9,-48.6C1.6,-46.6,0.4,-44.6,-0.8,-42.6C-2,-40.5,-3.2,-38.5,-4.3,-36.4C-5.4,-34.3,-6.5,-32.2,-7.5,-30C-8.5,-27.9,-9.5,-25.7,-10.4,-23.6C-11.3,-21.4,-12.2,-19.2,-13.1,-17C-13.9,-14.8,-14.8,-12.6,-15.5,-10.3C-16.3,-8.1,-17.1,-5.9,-17.8,-3.6C-18.5,-1.4,-19.2,0.9,-19.8,3.2C-20.5,5.4,-21.1,7.7,-21.6,10C-22.2,12.3,-22.8,14.6,-23.3,16.9C-23.8,19.2,-24.3,21.5,-24.8,23.8z" transform="translate(-70.93,122.75)" stroke="#a284dc" stroke-linejoin="round" id="179"/><text class="st1"><tspan textLength="112" lengthAdjust="spacing" y="39.9" x="15" style="white-space:pre">稳定应急办公室</tspan></text></g><g ed:width="47" ed:parentid="102" transform="translate(543.74,493.9)" ed:height="20.5" id="151"><path stroke-linecap="round" fill="none" d="M-14.5,60.6L-2.5,60.6C-2.5,-12.1,4.3,-60.6,14.5,-60.6" transform="translate(-14.5,81.08)" stroke="#f68ac8" stroke-linejoin="round" id="174"/><path fill="none" d="M0,20.5L47,20.5" stroke="#f68ac8" stroke-linejoin="round"/><text class="st2"><tspan textLength="39" lengthAdjust="spacing" y="15.8" x="4" style="white-space:pre">办公室</tspan></text></g><g ed:width="99" ed:parentid="104" transform="translate(543.74,180.2)" ed:height="20.5" id="153"><path stroke-linecap="round" fill="none" d="M-14.5,46L-2.5,46C-2.5,-9.2,4.3,-46,14.5,-46" transform="translate(-14.5,66.48)" stroke="#a284dc" stroke-linejoin="round" id="173"/><path fill="none" d="M0,20.5L99,20.5" stroke="#a284dc" stroke-linejoin="round"/><text class="st3"><tspan textLength="91" lengthAdjust="spacing" y="15.8" x="4" style="white-space:pre">安全监察质量部</tspan></text></g><g ed:width="47" ed:parentid="104" transform="translate(543.74,340.8)" ed:height="20.5" id="154"><path stroke-linecap="round" fill="none" d="M-14.5,-34.3L-2.5,-34.3C-2.5,6.9,4.3,34.3,14.5,34.3" transform="translate(-14.5,-13.82)" stroke="#a284dc" stroke-linejoin="round" id="171"/><path fill="none" d="M0,20.5L47,20.5" stroke="#a284dc" stroke-linejoin="round"/><text class="st3"><tspan textLength="39" lengthAdjust="spacing" y="15.8" x="4" style="white-space:pre">建设部</tspan></text></g><g ed:width="112" ed:parentid="102" transform="translate(543.74,669.1)" ed:height="20.5" id="155"><path stroke-linecap="round" fill="none" d="M-14.5,-27L-2.5,-27C-2.5,5.4,4.3,27,14.5,27" transform="translate(-14.5,-6.52)" stroke="#f68ac8" stroke-linejoin="round" id="167"/><path fill="none" d="M0,20.5L112,20.5" stroke="#f68ac8" stroke-linejoin="round"/><text class="st2"><tspan textLength="104" lengthAdjust="spacing" y="15.8" x="4" style="white-space:pre">电力调度控制中心</tspan></text></g><g ed:width="73" ed:parentid="102" transform="translate(543.74,610.7)" ed:height="20.5" id="156"><path stroke-linecap="round" fill="none" d="M-14.5,2.2L-2.5,2.2C-2.5,-0.4,4.3,-2.2,14.5,-2.2" transform="translate(-14.5,22.67)" stroke="#f68ac8" stroke-linejoin="round" id="168"/><path fill="none" d="M0,20.5L73,20.5" stroke="#f68ac8" stroke-linejoin="round"/><text class="st2"><tspan textLength="65" lengthAdjust="spacing" y="15.8" x="4" style="white-space:pre">运维检修部</tspan></text></g><g ed:width="47" ed:parentid="104" transform="translate(543.74,267.8)" ed:height="20.5" id="157"><path stroke-linecap="round" fill="none" d="M-14.5,2.2L-2.5,2.2C-2.5,-0.4,4.3,-2.2,14.5,-2.2" transform="translate(-14.5,22.68)" stroke="#a284dc" stroke-linejoin="round" id="172"/><path fill="none" d="M0,20.5L47,20.5" stroke="#a284dc" stroke-linejoin="round"/><text class="st3"><tspan textLength="39" lengthAdjust="spacing" y="15.8" x="4" style="white-space:pre">营销部</tspan></text></g><g ed:width="99" ed:parentid="104" transform="translate(543.74,399.2)" ed:height="20.5" id="158"><path stroke-linecap="round" fill="none" d="M-14.5,-63.5L-2.5,-63.5C-2.5,12.7,4.3,63.5,14.5,63.5" transform="translate(-14.5,-43.02)" stroke="#a284dc" stroke-linejoin="round" id="170"/><path fill="none" d="M0,20.5L99,20.5" stroke="#a284dc" stroke-linejoin="round"/><text class="st3"><tspan textLength="91" lengthAdjust="spacing" y="15.8" x="4" style="white-space:pre">信息通信分公司</tspan></text></g><g ed:width="86" ed:parentid="102" transform="translate(543.74,552.3)" ed:height="20.5" id="159"><path stroke-linecap="round" fill="none" d="M-14.5,31.4L-2.5,31.4C-2.5,-6.3,4.3,-31.4,14.5,-31.4" transform="translate(-14.5,51.88)" stroke="#f68ac8" stroke-linejoin="round" id="169"/><path fill="none" d="M0,20.5L86,20.5" stroke="#f68ac8" stroke-linejoin="round"/><text class="st2"><tspan textLength="78" lengthAdjust="spacing" y="15.8" x="4" style="white-space:pre">物资供应中心</tspan></text></g><g ed:width="73" ed:parentid="153" transform="translate(671.74,151)" ed:height="20.5" id="180"><path stroke-linecap="round" fill="none" d="M-14.5,14.6L-2.5,14.6C-2.5,-2.9,4.3,-14.6,14.5,-14.6" transform="translate(-14.5,35.1)" stroke="#a284dc" stroke-linejoin="round" id="181"/><path fill="none" d="M0,20.5L73,20.5" stroke="#a284dc" stroke-linejoin="round"/><text class="st3"><tspan textLength="65" lengthAdjust="spacing" y="15.8" x="4" style="white-space:pre">输电运检室</tspan></text></g><g ed:width="73" ed:parentid="153" transform="translate(671.74,180.2)" ed:height="20.5" id="182"><path stroke-linecap="round" fill="none" d="M-14.5,0L-2.5,0C-2.5,0,4.3,0,14.5,0" transform="translate(-14.5,20.5)" stroke="#a284dc" stroke-linejoin="round" id="183"/><path fill="none" d="M0,20.5L73,20.5" stroke="#a284dc" stroke-linejoin="round"/><text class="st3"><tspan textLength="65" lengthAdjust="spacing" y="15.8" x="4" style="white-space:pre">变电运检室</tspan></text></g><g ed:width="73" ed:parentid="153" transform="translate(671.74,209.4)" ed:height="20.5" id="184"><path stroke-linecap="round" fill="none" d="M-14.5,-14.6L-2.5,-14.6C-2.5,2.9,4.3,14.6,14.5,14.6" transform="translate(-14.5,5.9)" stroke="#a284dc" stroke-linejoin="round" id="185"/><path fill="none" d="M0,20.5L73,20.5" stroke="#a284dc" stroke-linejoin="round"/><text class="st3"><tspan textLength="65" lengthAdjust="spacing" y="15.8" x="4" style="white-space:pre">变电检修室</tspan></text></g><g ed:width="73" ed:parentid="157" transform="translate(619.74,238.6)" ed:height="20.5" id="186"><path stroke-linecap="round" fill="none" d="M-14.5,14.6L-2.5,14.6C-2.5,-2.9,4.3,-14.6,14.5,-14.6" transform="translate(-14.5,35.1)" stroke="#a284dc" stroke-linejoin="round" id="187"/><path fill="none" d="M0,20.5L73,20.5" stroke="#a284dc" stroke-linejoin="round"/><text class="st3"><tspan textLength="65" lengthAdjust="spacing" y="15.8" x="4" style="white-space:pre">配电运检室</tspan></text></g><g ed:width="73" ed:parentid="157" transform="translate(619.74,267.8)" ed:height="20.5" id="188"><path stroke-linecap="round" fill="none" d="M-14.5,0L-2.5,0C-2.5,0,4.3,0,14.5,0" transform="translate(-14.5,20.5)" stroke="#a284dc" stroke-linejoin="round" id="189"/><path fill="none" d="M0,20.5L73,20.5" stroke="#a284dc" stroke-linejoin="round"/><text class="st3"><tspan textLength="65" lengthAdjust="spacing" y="15.8" x="4" style="white-space:pre">电缆运检室</tspan></text></g><g ed:width="73" ed:parentid="157" transform="translate(619.74,297)" ed:height="20.5" id="190"><path stroke-linecap="round" fill="none" d="M-14.5,-14.6L-2.5,-14.6C-2.5,2.9,4.3,14.6,14.5,14.6" transform="translate(-14.5,5.9)" stroke="#a284dc" stroke-linejoin="round" id="191"/><path fill="none" d="M0,20.5L73,20.5" stroke="#a284dc" stroke-linejoin="round"/><text class="st3"><tspan textLength="65" lengthAdjust="spacing" y="15.8" x="4" style="white-space:pre">带电作业室</tspan></text></g><g ed:width="125" ed:parentid="154" transform="translate(619.74,326.2)" ed:height="20.5" id="192"><path stroke-linecap="round" fill="none" d="M-14.5,7.3L-2.5,7.3C-2.5,-1.5,4.3,-7.3,14.5,-7.3" transform="translate(-14.5,27.8)" stroke="#a284dc" stroke-linejoin="round" id="193"/><path fill="none" d="M0,20.5L125,20.5" stroke="#a284dc" stroke-linejoin="round"/><text class="st3"><tspan textLength="117" lengthAdjust="spacing" y="15.8" x="4" style="white-space:pre">和平客户服务分中心</tspan></text></g><g ed:width="125" ed:parentid="154" transform="translate(619.74,355.4)" ed:height="20.5" id="194"><path stroke-linecap="round" fill="none" d="M-14.5,-7.3L-2.5,-7.3C-2.5,1.5,4.3,7.3,14.5,7.3" transform="translate(-14.5,13.2)" stroke="#a284dc" stroke-linejoin="round" id="195"/><path fill="none" d="M0,20.5L125,20.5" stroke="#a284dc" stroke-linejoin="round"/><text class="st3"><tspan textLength="117" lengthAdjust="spacing" y="15.8" x="4" style="white-space:pre">沈河客户服务分中心</tspan></text></g><g ed:width="125" ed:parentid="158" transform="translate(671.74,384.6)" ed:height="20.5" id="196"><path stroke-linecap="round" fill="none" d="M-14.5,7.3L-2.5,7.3C-2.5,-1.5,4.3,-7.3,14.5,-7.3" transform="translate(-14.5,27.8)" stroke="#a284dc" stroke-linejoin="round" id="197"/><path fill="none" d="M0,20.5L125,20.5" stroke="#a284dc" stroke-linejoin="round"/><text class="st3"><tspan textLength="117" lengthAdjust="spacing" y="15.8" x="4" style="white-space:pre">大东客户服务分中心</tspan></text></g><g ed:width="125" ed:parentid="158" transform="translate(671.74,413.8)" ed:height="20.5" id="198"><path stroke-linecap="round" fill="none" d="M-14.5,-7.3L-2.5,-7.3C-2.5,1.5,4.3,7.3,14.5,7.3" transform="translate(-14.5,13.2)" stroke="#a284dc" stroke-linejoin="round" id="199"/><path fill="none" d="M0,20.5L125,20.5" stroke="#a284dc" stroke-linejoin="round"/><text class="st3"><tspan textLength="117" lengthAdjust="spacing" y="15.8" x="4" style="white-space:pre">皇姑客户服务分中心</tspan></text></g><g ed:width="125" ed:parentid="151" transform="translate(619.74,479.3)" ed:height="20.5" id="200"><path stroke-linecap="round" fill="none" d="M-14.5,7.3L-2.5,7.3C-2.5,-1.5,4.3,-7.3,14.5,-7.3" transform="translate(-14.5,27.8)" stroke="#f68ac8" stroke-linejoin="round" id="201"/><path fill="none" d="M0,20.5L125,20.5" stroke="#f68ac8" stroke-linejoin="round"/><text class="st2"><tspan textLength="117" lengthAdjust="spacing" y="15.8" x="4" style="white-space:pre">铁西客户服务分中心</tspan></text></g><g ed:width="125" ed:parentid="151" transform="translate(619.74,508.5)" ed:height="20.5" id="202"><path stroke-linecap="round" fill="none" d="M-14.5,-7.3L-2.5,-7.3C-2.5,1.5,4.3,7.3,14.5,7.3" transform="translate(-14.5,13.2)" stroke="#f68ac8" stroke-linejoin="round" id="203"/><path fill="none" d="M0,20.5L125,20.5" stroke="#f68ac8" stroke-linejoin="round"/><text class="st2"><tspan textLength="117" lengthAdjust="spacing" y="15.8" x="4" style="white-space:pre">浑南客户服务分中心</tspan></text></g><g ed:width="138" ed:parentid="159" transform="translate(658.74,566.9)" ed:height="20.5" id="204"><path stroke-linecap="round" fill="none" d="M-14.5,-7.3L-2.5,-7.3C-2.5,1.5,4.3,7.3,14.5,7.3" transform="translate(-14.5,13.2)" stroke="#f68ac8" stroke-linejoin="round" id="205"/><path fill="none" d="M0,20.5L138,20.5" stroke="#f68ac8" stroke-linejoin="round"/><text class="st2"><tspan textLength="130" lengthAdjust="spacing" y="15.8" x="4" style="white-space:pre">开发区客户服务分中心</tspan></text></g><g ed:width="125" ed:parentid="159" transform="translate(658.74,537.7)" ed:height="20.5" id="206"><path stroke-linecap="round" fill="none" d="M-14.5,7.3L-2.5,7.3C-2.5,-1.5,4.3,-7.3,14.5,-7.3" transform="translate(-14.5,27.8)" stroke="#f68ac8" stroke-linejoin="round" id="207"/><path fill="none" d="M0,20.5L125,20.5" stroke="#f68ac8" stroke-linejoin="round"/><text class="st2"><tspan textLength="117" lengthAdjust="spacing" y="15.8" x="4" style="white-space:pre">国网新民市供电公司</tspan></text></g><g ed:width="164" ed:parentid="156" transform="translate(645.74,596.1)" ed:height="20.5" id="208"><path stroke-linecap="round" fill="none" d="M-14.5,7.3L-2.5,7.3C-2.5,-1.5,4.3,-7.3,14.5,-7.3" transform="translate(-14.5,27.8)" stroke="#f68ac8" stroke-linejoin="round" id="209"/><path fill="none" d="M0,20.5L164,20.5" stroke="#f68ac8" stroke-linejoin="round"/><text class="st2"><tspan textLength="156" lengthAdjust="spacing" y="15.8" x="4" style="white-space:pre">国网沈阳市辽中区供电公司</tspan></text></g><g ed:width="177" ed:parentid="156" transform="translate(645.74,625.3)" ed:height="20.5" id="210"><path stroke-linecap="round" fill="none" d="M-14.5,-7.3L-2.5,-7.3C-2.5,1.5,4.3,7.3,14.5,7.3" transform="translate(-14.5,13.2)" stroke="#f68ac8" stroke-linejoin="round" id="211"/><path fill="none" d="M0,20.5L177,20.5" stroke="#f68ac8" stroke-linejoin="round"/><text class="st2"><tspan textLength="169" lengthAdjust="spacing" y="15.8" x="4" style="white-space:pre">国网沈阳市苏家屯区供电公司</tspan></text></g><g ed:width="177" ed:parentid="155" transform="translate(684.74,654.5)" ed:height="20.5" id="212"><path stroke-linecap="round" fill="none" d="M-14.5,7.3L-2.5,7.3C-2.5,-1.5,4.3,-7.3,14.5,-7.3" transform="translate(-14.5,27.8)" stroke="#f68ac8" stroke-linejoin="round" id="213"/><path fill="none" d="M0,20.5L177,20.5" stroke="#f68ac8" stroke-linejoin="round"/><text class="st2"><tspan textLength="169" lengthAdjust="spacing" y="15.8" x="4" style="white-space:pre">国网沈阳市沈北新区供电公司</tspan></text></g><g ed:width="164" ed:parentid="155" transform="translate(684.74,683.7)" ed:height="20.5" id="214"><path stroke-linecap="round" fill="none" d="M-14.5,-7.3L-2.5,-7.3C-2.5,1.5,4.3,7.3,14.5,7.3" transform="translate(-14.5,13.2)" stroke="#f68ac8" stroke-linejoin="round" id="215"/><path fill="none" d="M0,20.5L164,20.5" stroke="#f68ac8" stroke-linejoin="round"/><text class="st2"><tspan textLength="156" lengthAdjust="spacing" y="15.8" x="4" style="white-space:pre">国网沈阳市于洪区供电公司</tspan></text></g><g ed:width="164" ed:parentid="222" transform="translate(632.74,712.9)" ed:height="20.5" id="216"><path stroke-linecap="round" fill="none" d="M-14.5,14.6L-2.5,14.6C-2.5,-2.9,4.3,-14.6,14.5,-14.6" transform="translate(-14.5,35.1)" stroke="#f68ac8" stroke-linejoin="round" id="217"/><path fill="none" d="M0,20.5L164,20.5" stroke="#f68ac8" stroke-linejoin="round"/><text class="st2"><tspan textLength="156" lengthAdjust="spacing" y="15.8" x="4" style="white-space:pre">国网沈阳市法库县供电公司</tspan></text></g><g ed:width="164" ed:parentid="222" transform="translate(632.74,742.1)" ed:height="20.5" id="218"><path stroke-linecap="round" fill="none" d="M-14.5,0L-2.5,0C-2.5,0,4.3,0,14.5,0" transform="translate(-14.5,20.5)" stroke="#f68ac8" stroke-linejoin="round" id="219"/><path fill="none" d="M0,20.5L164,20.5" stroke="#f68ac8" stroke-linejoin="round"/><text class="st2"><tspan textLength="156" lengthAdjust="spacing" y="15.8" x="4" style="white-space:pre">国网沈阳市东陵区供电公司</tspan></text></g><g ed:width="164" ed:parentid="222" transform="translate(632.74,771.3)" ed:height="20.5" id="220"><path stroke-linecap="round" fill="none" d="M-14.5,-14.6L-2.5,-14.6C-2.5,2.9,4.3,14.6,14.5,14.6" transform="translate(-14.5,5.9)" stroke="#f68ac8" stroke-linejoin="round" id="221"/><path fill="none" d="M0,20.5L164,20.5" stroke="#f68ac8" stroke-linejoin="round"/><text class="st2"><tspan textLength="156" lengthAdjust="spacing" y="15.8" x="4" style="white-space:pre">国网沈阳市康平县供电公司</tspan></text></g><g ed:width="60" ed:parentid="102" transform="translate(543.74,742.1)" ed:height="20.5" id="222"><path stroke-linecap="round" fill="none" d="M-14.5,-63.5L-2.5,-63.5C-2.5,12.7,4.3,63.5,14.5,63.5" transform="translate(-14.5,-43.02)" stroke="#f68ac8" stroke-linejoin="round" id="223"/><path fill="none" d="M0,20.5L60,20.5" stroke="#f68ac8" stroke-linejoin="round"/><text class="st2"><tspan textLength="52" lengthAdjust="spacing" y="15.8" x="4" style="white-space:pre">综合服务</tspan></text></g><g ed:topictype="floating" ed:width="84.84999999999999" transform="translate(188.44,839.4)" ed:height="42" ed:layout="map" id="224"><path fill="#ffffff" d="M10.5,0L74.3,0L84.8,10.5L84.8,31.5L74.3,42L10.5,42L0,31.5L0,10.5L10.5,0z" stroke="#002060" stroke-linejoin="round" stroke-width="3"/><text class="st4"><tspan textLength="32" lengthAdjust="spacing" y="27.5" x="27" style="white-space:pre">一级</tspan></text></g><g ed:topictype="floating" ed:width="84.84999999999999" transform="translate(368.44,841.4)" ed:height="42" ed:layout="map" id="225"><path fill="#ffffff" d="M10.5,0L74.3,0L84.8,10.5L84.8,31.5L74.3,42L10.5,42L0,31.5L0,10.5L10.5,0z" stroke="#002060" stroke-linejoin="round" stroke-width="3"/><text class="st4"><tspan textLength="32" lengthAdjust="spacing" y="27.5" x="27" style="white-space:pre">二级</tspan></text></g><g ed:topictype="floating" ed:width="84.84999999999999" transform="translate(536.44,843.4)" ed:height="42" ed:layout="map" id="226"><path fill="#ffffff" d="M10.5,0L74.3,0L84.8,10.5L84.8,31.5L74.3,42L10.5,42L0,31.5L0,10.5L10.5,0z" stroke="#002060" stroke-linejoin="round" stroke-width="3"/><text class="st4"><tspan textLength="32" lengthAdjust="spacing" y="27.5" x="27" style="white-space:pre">三级</tspan></text></g><g ed:topictype="floating" ed:width="84.84999999999999" transform="translate(700.44,843.4)" ed:height="42" ed:layout="map" id="227"><path fill="#ffffff" d="M10.5,0L74.3,0L84.8,10.5L84.8,31.5L74.3,42L10.5,42L0,31.5L0,10.5L10.5,0z" stroke="#002060" stroke-linejoin="round" stroke-width="3"/><text class="st4"><tspan textLength="32" lengthAdjust="spacing" y="27.5" x="27" style="white-space:pre">四级</tspan></text></g><g ed:topictype="mainidea" ed:width="157.735" transform="translate(153,392.53)" ed:height="157.735" ed:layout="rightmap" id="101"><path fill="#8bd4a7" d="M152.1,78.9C159.4,91.3,164.4,113.8,135.4,120.1C135.4,143.8,120.7,151.3,99.9,145.7C78.5,167.3,61.6,155,54.7,145.7C22.4,153.9,19.5,125.3,19.8,120.2C-5.9,109.7,-2.4,91.9,6.8,78.9C-7.8,53.2,5.7,41.2,21.6,37.4C19.2,11.1,39.3,6.6,57,11.8C60,8,80,-12.7,99.9,11.8C119.2,5.9,138.1,11.4,138.7,37.4C152.6,41.1,165.4,54.3,152.1,78.9z" stroke="#8bd4a7" stroke-linejoin="round" stroke-width="3"/><text class="st5"><tspan textLength="114" lengthAdjust="spacing" y="86.4" x="22" style="white-space:pre">应急领导小组</tspan></text></g><g transform="translate(311.735,465.4)" ed:togtopicid="101"><use xlink:href="#minus"/></g><g transform="translate(515.737,629.55)" ed:togtopicid="102"><use xlink:href="#minus"/></g><g transform="translate(515.737,286.65)" ed:togtopicid="104"><use xlink:href="#minus"/></g><g transform="translate(591.737,498.15)" ed:togtopicid="151"><use xlink:href="#minus"/></g><g transform="translate(643.737,184.45)" ed:togtopicid="153"><use xlink:href="#minus"/></g><g transform="translate(591.737,345.05)" ed:togtopicid="154"><use xlink:href="#minus"/></g><g transform="translate(656.737,673.35)" ed:togtopicid="155"><use xlink:href="#minus"/></g><g transform="translate(617.737,614.95)" ed:togtopicid="156"><use xlink:href="#minus"/></g><g transform="translate(591.737,272.05)" ed:togtopicid="157"><use xlink:href="#minus"/></g><g transform="translate(643.737,403.45)" ed:togtopicid="158"><use xlink:href="#minus"/></g><g transform="translate(630.737,556.55)" ed:togtopicid="159"><use xlink:href="#minus"/></g><g transform="translate(604.737,746.35)" ed:togtopicid="222"><use xlink:href="#minus"/></g><symbol id="plus"><path fill="url(#lg1)" d="M11,6C11,8.8,8.8,11,6,11C3.2,11,1,8.8,1,6C1,3.2,3.2,1,6,1C8.8,1,11,3.2,11,6z"/><path fill="none" d="M11,6C11,8.8,8.8,11,6,11C3.2,11,1,8.8,1,6C1,3.2,3.2,1,6,1C8.8,1,11,3.2,11,6zM3,6L9,6M6,3L6,9" stroke="#46a000"/></symbol><symbol id="minus"><path fill="url(#lg1)" d="M11,6C11,8.8,8.8,11,6,11C3.2,11,1,8.8,1,6C1,3.2,3.2,1,6,1C8.8,1,11,3.2,11,6z"/><path fill="none" d="M11,6C11,8.8,8.8,11,6,11C3.2,11,1,8.8,1,6C1,3.2,3.2,1,6,1C8.8,1,11,3.2,11,6zM3,6L9,6" stroke="#46a000"/></symbol></svg>